{"title":"Formula 1 2013 Australian Grand Prix Practice 2 - F1","uid":8259829,"size":1150017879,"categoryP":"video","categoryS":"handheld","magnet":"?xt=urn:btih:34f2b42b6f8ee4a88a1b62e63345da50d1eb2d80&amp;dn=Formula+1+2013+Australian+Grand+Prix+Practice+2+-+F1&amp;tr=udp%3A%2F%2Ftracker.openbittorrent.com%3A80&amp;tr=udp%3A%2F%2Fopen.demonii.com%3A1337&amp;tr=udp%3A%2F%2Ftracker.coppersurfer.tk%3A6969&amp;tr=udp%3A%2F%2Fexodus.desync.com%3A6969","seeders":0,"leechers":1,"uploader":"IAMH67","files":5,"time":1363356688,"description":"The P2 session of the start of the new F1 season aired on Sky F1.\n\nTechnical Information :\n\nVideo\n\nID                               : 0\nFormat                           : AVI\nFormat profile                   : Advanced Simple@L5\nFormat settings, BVOP            : Yes\nFormat settings, QPel            : No\nFormat settings, GMC             : No warppoints\nFormat settings, Matrix          : Default (H.263)\nMuxing mode                      : Packed bitstream\nCodec ID                         : XVID\nCodec ID/Hint                    : XviD\nDuration                         : 1h 54mn\nBit rate                         : 1 203 Kbps\nWidth                            : 624 pixels\nHeight                           : 352 pixels\nDisplay aspect ratio             : 16:9\nFrame rate                       : 25.000 fps\nResolution                       : 8 bits\nColorimetry                      : 4:2:0\nScan type                        : Progressive\nBits/(Pixel*Frame)               : 0.219\nStream size                      : 984 MiB (90%)\nWriting library                  : XviD 1.2.1 (UTC 2008-12-04)\n\nAudio\n\nID                               : 1\nFormat                           : MPEG Audio\nFormat version                   : Version 1\nFormat profile                   : Layer 3\nMode                             : Joint stereo\nFormat_Settings_ModeExtension    : MS Stereo\nCodec ID                         : 55\nCodec ID/Hint                    : MP3\nDuration                         : 1h 54mn\nBit rate mode                    : Constant\nBit rate                         : 128 Kbps\nChannel(s)                       : 2 channels\nSampling rate                    : 48.0 KHz\nStream size                      : 105 MiB (10%)\nAlignment                        : Aligned on interleaves\nInterleave, duration             : 40 ms (1.00 video frame)\nInterleave, preload duration     : 480 ms\n\n\nScreens :\n &lt;a href=&quot;\nhttp://i.imgur.com/Y1VEBM0.jpg&quot; rel=&quot;nofollow&quot; target=&quot;_NEW&quot;&gt;\nhttp://i.imgur.com/Y1VEBM0.jpg&lt;/a&gt;\n &lt;a href=&quot;\nhttp://i.imgur.com/KrWio7h.jpg&quot; rel=&quot;nofollow&quot; target=&quot;_NEW&quot;&gt;\nhttp://i.imgur.com/KrWio7h.jpg&lt;/a&gt;\n &lt;a href=&quot;\nhttp://i.imgur.com/39wEudn.jpg&quot; rel=&quot;nofollow&quot; target=&quot;_NEW&quot;&gt;\nhttp://i.imgur.com/39wEudn.jpg&lt;/a&gt;","torrent":{"xt":"urn:btih:34f2b42b6f8ee4a88a1b62e63345da50d1eb2d80","amp;dn":"Formula+1+2013+Australian+Grand+Prix+Practice+2+-+F1","amp;tr":["udp%3A%2F%2Ftracker.openbittorrent.com%3A80","udp%3A%2F%2Fopen.demonii.com%3A1337","udp%3A%2F%2Ftracker.coppersurfer.tk%3A6969","udp%3A%2F%2Fexodus.desync.com%3A6969"],"infoHash":"34f2b42b6f8ee4a88a1b62e63345da50d1eb2d80","infoHashBuffer":{"type":"Buffer","data":[52,242,180,43,111,142,228,168,138,27,98,230,51,69,218,80,209,235,45,128]},"announce":[],"urlList":[]}}